<svg width="13" height="13" viewBox="0 0 13 13" fill="none" xmlns="http://www.w3.org/2000/svg">
<path d="M4.99974 4.05025e-09C5.93172 -3.75019e-05 6.84517 0.260409 7.63699 0.751948C8.42882 1.24349 9.0675 1.94655 9.48096 2.7818C9.89443 3.61705 10.0662 4.55124 9.97695 5.47894C9.88767 6.40664 9.54089 7.29092 8.97574 8.032L12.1377 11.1953C12.2573 11.3153 12.3267 11.4763 12.3319 11.6456C12.3371 11.8149 12.2776 11.9798 12.1656 12.1069C12.0535 12.2339 11.8974 12.3135 11.7288 12.3296C11.5601 12.3457 11.3917 12.2969 11.2577 12.1933L11.1951 12.138L8.03174 8.976C7.4004 9.4574 6.66351 9.78153 5.88203 9.92159C5.10055 10.0616 4.29696 10.0136 3.53774 9.7814C2.77852 9.54921 2.0855 9.13957 1.51604 8.58636C0.946575 8.03316 0.517033 7.3523 0.262955 6.60012C0.00887784 5.84795 -0.0624296 5.04608 0.0549332 4.26087C0.172296 3.47567 0.474955 2.72969 0.937866 2.08468C1.40078 1.43967 2.01063 0.914171 2.71697 0.551657C3.4233 0.189143 4.20581 4.19033e-05 4.99974 4.05025e-09ZM4.99974 1.33333C4.02728 1.33333 3.09465 1.71964 2.40701 2.40727C1.71938 3.09491 1.33307 4.02754 1.33307 5C1.33307 5.97246 1.71938 6.90509 2.40701 7.59272C3.09465 8.28036 4.02728 8.66667 4.99974 8.66667C5.9722 8.66667 6.90483 8.28036 7.59246 7.59272C8.2801 6.90509 8.6664 5.97246 8.6664 5C8.6664 4.02754 8.2801 3.09491 7.59246 2.40727C6.90483 1.71964 5.9722 1.33333 4.99974 1.33333Z" fill="white"/>
</svg>
